<?xml version="1.0" encoding="utf-8"?>
<!-- Generator: Adobe Illustrator 16.0.0, SVG Export Plug-In . SVG Version: 6.00 Build 0)  -->
<!DOCTYPE svg PUBLIC "-//W3C//DTD SVG 1.1//EN" "http://www.w3.org/Graphics/SVG/1.1/DTD/svg11.dtd">
<svg version="1.1" id="Ebene_1" xmlns="http://www.w3.org/2000/svg" xmlns:xlink="http://www.w3.org/1999/xlink" x="0px" y="0px"
	 width="46.663px" height="37.383px" viewBox="0 0 46.663 37.383" enable-background="new 0 0 46.663 37.383" xml:space="preserve">
<g>
	<defs>
		<rect id="SVGID_1_" y="0" width="46.663" height="37.383"/>
	</defs>
	<clipPath id="SVGID_2_">
		<use xlink:href="#SVGID_1_"  overflow="visible"/>
	</clipPath>
	<path fill="#ffffff" clip-path="url(#SVGID_2_)" d="M46.367,6.734c0.393,0.387,0.395,1.02,0.006,1.41L17.424,37.091
		c-0.389,0.389-1.026,0.389-1.414,0l-6.491-6.492c-0.39-0.388-1.027-1.024-1.414-1.414l-7.812-7.813
		c-0.391-0.387-0.391-1.024,0-1.414l6.492-6.493c0.389-0.388,1.025-0.388,1.414,0l7.813,7.813c0.39,0.389,1.027,0.389,1.414,0
		L38.412,0.293c0.389-0.389,1.027-0.391,1.42-0.004L46.367,6.734z"/>
</g>
</svg>
